<svg width="30" height="28" viewBox="0 0 30 28" fill="none" xmlns="http://www.w3.org/2000/svg">
<g clip-path="url(#clip0_4207_2291)">
<path d="M29.1 8.2C29 6.7 28.8 5.7 28.4 4.8C28 3.9 27.5 3 26.8 2.3C26.1 1.6 25.3 1 24.3 0.7C23.4 0.4 22.4 0.1 20.9 0C19.5 0 23 0 14 0C10.2 0 9.7 0 8.2 0.1C6.7 0.1 5.7 0.4 4.8 0.7C3.9 1.1 3.1 1.6 2.4 2.4C1.6 3.1 1.1 3.9 0.7 4.8C0.4 5.7 0.2 6.7 0.1 8.2C0 9.7 0 10.2 0 14C0 17.8 0 18.3 0.1 19.8C0.2 21.3 0.4 22.3 0.8 23.2C1.2 24.1 1.7 25 2.4 25.7C3.1 26.4 3.9 27 4.9 27.3C5.8 27.6 6.8 27.9 8.3 28C9.7 28 10.2 28 14 28C23 28 19.5 28 21 27.9C22.5 27.8 23.5 27.6 24.4 27.2C26.3 26.5 27.8 25 28.5 23.1C28.8 22.2 29.1 21.2 29.2 19.7C29.3 18.2 29.3 17.7 29.3 13.9C29.2 10.2 29.2 9.7 29.1 8.2ZM26.6 19.7C26.5 21.1 26.3 21.8 26.1 22.3C25.6 23.5 24.7 24.5 23.4 25C22.9 25.2 22.2 25.4 20.8 25.5C19.3 25.6 22.9 25.6 13.9 25.6C10.2 25.6 9.7 25.6 8.2 25.5C6.8 25.4 6.1 25.2 5.6 25C5 24.8 4.4 24.4 4 24C3.5 23.5 3.2 23 3 22.4C2.8 21.9 2.6 21.2 2.5 19.8C2.4 18.3 2.4 17.9 2.4 14.1C2.4 10.4 2.4 9.9 2.5 8.4C2.7 7 2.9 6.3 3.1 5.8C3.3 5.2 3.7 4.6 4.2 4.2C4.7 3.7 5.2 3.4 5.8 3.2C6.3 2.9 7 2.7 8.4 2.6C9.9 2.5 10.3 2.5 14.1 2.5C23 2.5 19.5 2.5 21 2.6C22.4 2.7 23.1 2.9 23.6 3.1C24.2 3.3 24.8 3.7 25.2 4.1C25.7 4.6 26 5.1 26.2 5.7C26.4 6.2 26.6 6.9 26.7 8.3C26.8 9.8 26.8 10.2 26.8 14C26.7 17.7 26.7 18.2 26.6 19.7Z" fill="white"/>
<path d="M18.3004 15.1002L18.7004 12.2002H16.0004V10.3002C16.0004 9.5002 16.4004 8.7002 17.6004 8.7002H18.9004V6.4002C18.9004 6.4002 17.8004 6.2002 16.7004 6.2002C14.4004 6.2002 12.9004 7.6002 12.9004 10.1002V12.3002H10.4004V15.2002H12.9004V22.2002C13.4004 22.3002 13.9004 22.3002 14.5004 22.3002C15.0004 22.3002 15.5004 22.3002 16.1004 22.2002V15.2002H18.3004V15.1002Z" fill="white"/>
</g>
<defs>
<clipPath id="clip0_4207_2291">
<rect width="29.2" height="28" fill="white"/>
</clipPath>
</defs>
</svg>
