<svg width="24" height="21" viewBox="0 0 24 21" fill="none" xmlns="http://www.w3.org/2000/svg">
<path d="M22.6562 18.7188C23.2085 18.7188 23.6562 18.271 23.6562 17.7188C23.6563 17.1665 23.2085 16.7188 22.6563 16.7188L22.6562 18.7188ZM22.6563 16.7188L12.1563 16.7187L12.1562 18.7187L22.6562 18.7188L22.6563 16.7188Z" fill="white"/>
<path d="M1 16.7187C0.447715 16.7187 4.82823e-08 17.1665 0 17.7187C-4.82823e-08 18.271 0.447715 18.7187 1 18.7187L1 16.7187ZM6.25 16.7188L1 16.7187L1 18.7187L6.25 18.7188L6.25 16.7188Z" fill="white"/>
<circle cx="8.875" cy="17.7188" r="2.28125" transform="rotate(-180 8.875 17.7188)" stroke="white" stroke-width="2"/>
<path d="M22.6562 4.28125C23.2085 4.28125 23.6562 3.83353 23.6562 3.28125C23.6563 2.72897 23.2085 2.28125 22.6563 2.28125L22.6562 4.28125ZM22.6563 2.28125L12.1563 2.28125L12.1562 4.28125L22.6562 4.28125L22.6563 2.28125Z" fill="white"/>
<path d="M1 2.28125C0.447715 2.28125 4.82823e-08 2.72896 0 3.28125C-4.82823e-08 3.83353 0.447715 4.28125 1 4.28125L1 2.28125ZM6.25 2.28125L1 2.28125L1 4.28125L6.25 4.28125L6.25 2.28125Z" fill="white"/>
<circle cx="8.875" cy="3.28125" r="2.28125" transform="rotate(-180 8.875 3.28125)" stroke="white" stroke-width="2"/>
<path d="M1 9.5C0.447715 9.5 9.65644e-08 9.94772 0 10.5C-3.69601e-08 11.0523 0.447715 11.5 1 11.5L1 9.5ZM1 11.5L10.8437 11.5L10.8438 9.5L1 9.5L1 11.5Z" fill="white"/>
<path d="M22.6562 11.5C23.2085 11.5 23.6562 11.0523 23.6562 10.5C23.6563 9.94772 23.2085 9.5 22.6563 9.5L22.6562 11.5ZM17.4062 11.5L22.6562 11.5L22.6563 9.5L17.4063 9.5L17.4062 11.5Z" fill="white"/>
<circle cx="14.125" cy="10.5" r="2.28125" stroke="white" stroke-width="2"/>
</svg>
